<svg xmlns="http://www.w3.org/2000/svg" xmlns:xlink="http://www.w3.org/1999/xlink" width="257" height="257" viewBox="0 0 257 257">
  <defs>
    <circle id="logo-a" cx="128.5" cy="128.5" r="124.5"/>
    <linearGradient id="logo-b" x1="50%" x2="50%" y1="0%" y2="100%">
      <stop offset="0%" stop-color="#FFF"/>
      <stop offset="100%" stop-color="#FFF" stop-opacity="0"/>
    </linearGradient>
    <filter id="logo-c" width="110.9%" height="110.9%" x="-5.5%" y="-5.5%" filterUnits="objectBoundingBox">
      <feGaussianBlur in="SourceGraphic" stdDeviation="2"/>
    </filter>
    <filter id="logo-e" width="106.7%" height="106.7%" x="-3.3%" y="-3.3%" filterUnits="objectBoundingBox">
      <feGaussianBlur in="SourceGraphic" stdDeviation="2"/>
    </filter>
    <filter id="logo-f" width="153.6%" height="195.8%" x="-26.8%" y="-47.9%" filterUnits="objectBoundingBox">
      <feGaussianBlur in="SourceGraphic" stdDeviation="6"/>
    </filter>
    <filter id="logo-g" width="153.6%" height="195.8%" x="-26.8%" y="-47.9%" filterUnits="objectBoundingBox">
      <feGaussianBlur in="SourceGraphic" stdDeviation="6"/>
    </filter>
    <filter id="logo-h" width="117.9%" height="131.9%" x="-8.9%" y="-16%" filterUnits="objectBoundingBox">
      <feGaussianBlur in="SourceGraphic" stdDeviation="2"/>
    </filter>
    <filter id="logo-i" width="117.9%" height="131.9%" x="-8.9%" y="-16%" filterUnits="objectBoundingBox">
      <feGaussianBlur in="SourceGraphic" stdDeviation="2"/>
    </filter>
    <linearGradient id="logo-j" x1="28.265%" x2="76.611%" y1="-15.23%" y2="100%">
      <stop offset="0%" stop-color="#FFF"/>
      <stop offset="100%" stop-color="#E3E3E3"/>
    </linearGradient>
  </defs>
  <g fill="none" fill-rule="evenodd">
    <circle cx="128" cy="128" r="125" fill="#FFF" transform="translate(.5 .5)"/>
    <mask id="logo-d" fill="#fff">
      <use xlink:href="#logo-a"/>
    </mask>
    <use fill="#B051D1" xlink:href="#logo-a"/>
    <circle cx="129" cy="129" r="53" stroke="url(#logo-b)" stroke-width="4" filter="url(#logo-c)" mask="url(#logo-d)" opacity=".4" style="mix-blend-mode:overlay"/>
    <circle cx="129" cy="129" r="88" stroke="url(#logo-b)" stroke-width="4" filter="url(#logo-e)" mask="url(#logo-d)" opacity=".4" style="mix-blend-mode:overlay"/>
    <g fill="#000" fill-rule="nonzero" mask="url(#logo-d)" opacity=".6">
      <g transform="rotate(45 -38.062 168.004)">
        <path d="M75.8956478,39.2836824 L75.8956478,34.728946 L88.2935517,34.728946 C96.2288404,34.728946 102.661663,28.356368 102.661663,20.4953946 C102.661663,12.6344212 96.2288404,6.26184322 88.2935517,6.26184322 L59.1197204,6.26184322 C51.1844316,6.26184322 44.7516091,12.6344212 44.7516091,20.4953946 C44.7516091,24.4226959 46.3572091,27.9785012 48.9536118,30.5537709 L43.0977203,30.5537709 C41.2334708,27.6456525 40.1538135,24.1954265 40.1538135,20.4953946 C40.1538135,10.1189098 48.6451392,1.70710678 59.1197204,1.70710678 L88.2935517,1.70710678 C98.7681328,1.70710678 107.259459,10.1189098 107.259459,20.4953946 C107.259459,30.8718794 98.7681328,39.2836824 88.2935517,39.2836824 L75.8956478,39.2836824 Z" filter="url(#logo-f)" opacity=".5"/>
        <path d="M37.8237344,48.2906829 L37.8237344,43.7359465 L50.2216383,43.7359465 C58.156927,43.7359465 64.5897495,37.3633684 64.5897495,29.5023951 C64.5897495,21.6414217 58.156927,15.2688437 50.2216383,15.2688437 L21.047807,15.2688437 C13.1125182,15.2688437 6.6796957,21.6414217 6.6796957,29.5023951 C6.6796957,33.4296964 8.2852957,36.9855017 10.8816983,39.5607714 L5.02580691,39.5607714 C3.16155741,36.652653 2.0819001,33.202427 2.0819001,29.5023951 C2.0819001,19.1259102 10.5732258,10.7141073 21.047807,10.7141073 L50.2216383,10.7141073 C60.6962194,10.7141073 69.1875451,19.1259102 69.1875451,29.5023951 C69.1875451,39.8788799 60.6962194,48.2906829 50.2216383,48.2906829 L37.8237344,48.2906829 Z" filter="url(#logo-g)" opacity=".5" transform="rotate(180 35.635 29.502)"/>
        <path d="M74.4814343,37.8694688 L74.4814343,33.3147324 L86.8793381,33.3147324 C94.8146269,33.3147324 101.247449,26.9421544 101.247449,19.081181 C101.247449,11.2202077 94.8146269,4.84762966 86.8793381,4.84762966 L57.7055068,4.84762966 C49.7702181,4.84762966 43.3373956,11.2202077 43.3373956,19.081181 C43.3373956,23.0084823 44.9429956,26.5642876 47.5393982,29.1395573 L41.6835068,29.1395573 C39.8192573,26.231439 38.7396,22.7812129 38.7396,19.081181 C38.7396,8.7046962 47.2309257,0.292893219 57.7055068,0.292893219 L86.8793381,0.292893219 C97.3539193,0.292893219 105.845245,8.7046962 105.845245,19.081181 C105.845245,29.4576659 97.3539193,37.8694688 86.8793381,37.8694688 L74.4814343,37.8694688 Z" filter="url(#logo-h)" opacity=".3"/>
        <path d="M36.4095209,46.8764693 L36.4095209,42.3217329 L48.8074247,42.3217329 C56.7427135,42.3217329 63.175536,35.9491549 63.175536,28.0881815 C63.175536,20.2272082 56.7427135,13.8546301 48.8074247,13.8546301 L19.6335934,13.8546301 C11.6983047,13.8546301 5.26548214,20.2272082 5.26548214,28.0881815 C5.26548214,32.0154828 6.87108214,35.5712881 9.46748479,38.1465578 L3.61159335,38.1465578 C1.74734385,35.2384395 0.66768654,31.7882134 0.66768654,28.0881815 C0.66768654,17.7116967 9.15901227,9.29989371 19.6335934,9.29989371 L48.8074247,9.29989371 C59.2820059,9.29989371 67.7733316,17.7116967 67.7733316,28.0881815 C67.7733316,38.4646664 59.2820059,46.8764693 48.8074247,46.8764693 L36.4095209,46.8764693 Z" filter="url(#logo-i)" opacity=".3" transform="rotate(180 34.22 28.088)"/>
      </g>
    </g>
    <path fill="url(#logo-j)" fill-rule="nonzero" stroke="#FFF" d="M150.726999,139.377128 L150.726999,134.822392 L163.124903,134.822392 C171.060192,134.822392 177.493014,128.449814 177.493014,120.588841 C177.493014,112.727867 171.060192,106.355289 163.124903,106.355289 L133.951071,106.355289 C126.015783,106.355289 119.58296,112.727867 119.58296,120.588841 C119.58296,124.516142 121.18856,128.071947 123.784963,130.647217 L117.929071,130.647217 C116.064822,127.739099 114.985165,124.288873 114.985165,120.588841 C114.985165,110.212356 123.47649,101.800553 133.951071,101.800553 L163.124903,101.800553 C173.599484,101.800553 182.09081,110.212356 182.09081,120.588841 C182.09081,130.965325 173.599484,139.377128 163.124903,139.377128 L150.726999,139.377128 Z M108.277062,110.807553 L108.277062,115.36229 L95.879158,115.36229 C87.9438693,115.36229 81.5110468,121.734868 81.5110468,129.595841 C81.5110468,137.456814 87.9438693,143.829392 95.879158,143.829392 L125.052989,143.829392 C132.988278,143.829392 139.421101,137.456814 139.421101,129.595841 C139.421101,125.66854 137.815501,122.112734 135.219098,119.537465 L141.074989,119.537465 C142.939239,122.445583 144.018896,125.895809 144.018896,129.595841 C144.018896,139.972326 135.52757,148.384129 125.052989,148.384129 L95.879158,148.384129 C85.4045769,148.384129 76.9132512,139.972326 76.9132512,129.595841 C76.9132512,119.219356 85.4045769,110.807553 95.879158,110.807553 L108.277062,110.807553 Z" mask="url(#logo-d)" transform="rotate(45 129.502 125.092)"/>
  </g>
</svg>
