<svg xmlns="http://www.w3.org/2000/svg" xmlns:xlink="http://www.w3.org/1999/xlink" width="257" height="257" viewBox="0 0 257 257">
  <defs>
    <circle id="logo-a" cx="128.5" cy="128.5" r="125"/>
  </defs>
  <g fill="none" fill-rule="evenodd">
    <circle cx="128" cy="128" r="125" fill="#FFF" transform="translate(.5 .5)"/>
    <mask id="logo-b" fill="#fff">
      <use xlink:href="#logo-a"/>
    </mask>
    <g fill-rule="nonzero" mask="url(#logo-b)">
      <g transform="translate(42 42.5)">
        <path fill="#26B99A" d="M111.473604 65C110.501567 65 109.664964 64.6818417 108.750219 64.3236346 107.749927 62.7793848 107.749927 60.7243417 108.750219 59.5890766L167.983856.745284093C169.129148-.248428031 171.194512-.248428031 172.749781.745284093 173.750073 2.287099 173.750073 4.34214204 172.749781 5.47984211L113.516144 64.3236346C113.011377 64.6818417 112.174773 65 111.473604 65M3.47360432 173C2.50156717 173 1.66496402 172.681842.750218671 172.323635-.25007289 170.779385-.25007289 168.724342.750218671 167.589077L59.9838565 108.745284C61.1291477 107.751572 63.1945117 107.751572 64.7497813 108.745284 65.7500729 110.287099 65.7500729 112.342142 64.7497813 113.479842L5.51614355 172.323635C5.01137664 172.681842 4.17477348 173 3.47360432 173M170.026396 173C169.325227 173 168.488623 172.681843 167.983856 172.323628L108.750219 113.479282C107.749927 112.342329 107.749927 110.287293 108.750219 108.744679 110.305488 107.751774 112.370852 107.751774 113.516144 108.744679L172.749781 167.589026C173.750073 168.724355 173.750073 170.779392 172.749781 172.323628 171.835036 172.681843 170.998433 173 170.026396 173M62.026385 65C61.3250108 65 60.4883661 64.6850568 59.9838465 64.3236348L.750230376 5.4798639C-.250076792 4.34259161-.250076792 2.2873438.750230376.745307623 2.30561125-.248435874 4.37107781-.248435874 5.51615351.745307623L64.7497696 59.5890785C65.7500768 60.7271625 65.7500768 62.7824103 64.7497696 64.3236348 63.8349448 64.6850568 62.9983001 65 62.026385 65"/>
        <path fill="#26B99A" d="M61.6044776,66 L22.8955224,66 C20.95275,66 19.5,64.4355 19.5,62.5 C19.5,60.568 20.95275,59 22.8955224,59 L61.6044776,59 C63.54725,59 65,60.568 65,62.5 C65,64.4355 63.54725,66 61.6044776,66"/>
        <path fill="#26B99A" d="M62.5 65C60.5645 65 59 63.54725 59 61.6044776L59 22.8955224C59 20.956 60.5645 19.5 62.5 19.5 64.4355 19.5 66 20.956 66 22.8955224L66 61.6044776C66 63.54725 64.4355 65 62.5 65M150.104478 115L111.395522 115C109.45275 115 108 113.432784 108 111.5 108 109.567216 109.45275 108 111.395522 108L150.104478 108C152.04725 108 153.5 109.567216 153.5 111.5 153.5 113.432784 152.04725 115 150.104478 115"/>
        <path fill="#26B99A" d="M111.5 153.5C109.5645 153.5 108 152.044104 108 150.104478L108 111.395522C108 109.455896 109.5645 108 111.5 108 113.4355 108 115 109.455896 115 111.395522L115 150.104478C115 152.044104 113.4355 153.5 111.5 153.5M62.5 153.5C60.5645 153.5 59 152.044 59 150.104478L59 111.395522C59 109.456 60.5645 108 62.5 108 64.4355 108 66 109.456 66 111.395522L66 150.104478C66 152.044 64.4355 153.5 62.5 153.5"/>
        <path fill="#26B99A" d="M61.6044776 115L22.8955224 115C20.95275 115 19.5 113.432 19.5 111.5 19.5 109.568 20.95275 108 22.8955224 108L61.6044776 108C63.54725 108 65 109.568 65 111.5 65 113.432 63.54725 115 61.6044776 115M111.5 65C109.5645 65 108 63.544 108 61.6044776L108 22.8955224C108 20.956 109.5645 19.5 111.5 19.5 113.4355 19.5 115 20.956 115 22.8955224L115 61.6044776C115 63.544 113.4355 65 111.5 65"/>
        <path fill="#26B99A" d="M150.104478,66 L111.395522,66 C109.45275,66 108,64.432 108,62.5 C108,60.568 109.45275,59 111.395522,59 L150.104478,59 C152.04725,59 153.5,60.568 153.5,62.5 C153.5,64.432 152.04725,66 150.104478,66"/>
        <polygon fill="#B1E97C" points="72 72 101 72 101 101 72 101"/>
        <path fill="#B1E97C" d="M68.5,68.5 L104.5,68.5 L104.5,104.5 L68.5,104.5 L68.5,68.5 Z M75.2924528,98.3867925 L98.3867925,98.3867925 L98.3867925,75.2924528 L75.2924528,75.2924528 L75.2924528,98.3867925 Z"/>
      </g>
    </g>
  </g>
</svg>
