<?xml version="1.0" encoding="UTF-8"?>
<svg width="640px" height="360px" viewBox="0 0 640 360" version="1.1" xmlns="http://www.w3.org/2000/svg" xmlns:xlink="http://www.w3.org/1999/xlink">
    <!-- Generator: Sketch 52.5 (67469) - http://www.bohemiancoding.com/sketch -->
    <title>url-shortener/picture</title>
    <desc>Created with Sketch.</desc>
    <defs>
        <path d="M15.4907795,8.38595339 L55.1283313,77.040207 C50.4614208,78.9482891 45.3535305,80 40,80 C17.90861,80 6.4659389e-13,62.09139 6.4659389e-13,40 C6.4659389e-13,27.1435269 6.06540051,15.703704 15.4907795,8.38595339 Z" id="path-1"></path>
    </defs>
    <g id="url-shortener/picture" stroke="none" stroke-width="1" fill="none" fill-rule="evenodd">
        <rect id="Rectangle" fill="#FFFFFF" x="0" y="0" width="640" height="360"></rect>
        <g id="Group-2-Copy" transform="translate(200.000000, 178.000000) rotate(-270.000000) translate(-200.000000, -178.000000) translate(160.000000, 138.000000)">
            <circle id="Oval-2" fill="#F4E1F8" cx="40" cy="40" r="40"></circle>
            <path d="M24.8716687,77.040207 L64.5092205,8.38595339 C73.9345995,15.703704 80,27.1435269 80,40 C80,62.09139 62.09139,80 40,80 C34.6464695,80 29.5385792,78.9482891 24.8716687,77.040207 Z" id="Combined-Shape" fill="#E2B1ED"></path>
            <mask id="mask-2" fill="white">
                <use xlink:href="#path-1"></use>
            </mask>
            <use id="Combined-Shape" fill="#CD52EA" xlink:href="#path-1"></use>
        </g>
        <text id="URL" font-family="NittiGrotesk-Light, Nitti Grotesk" font-size="28" font-weight="300" letter-spacing="3.333333" fill="#CD52EA">
            <tspan x="269" y="165">URL</tspan>
        </text>
        <text id="Shortener" font-family="NittiGrotesk-Bold, Nitti Grotesk" font-size="52" font-weight="bold" fill="#CD52EA">
            <tspan x="269" y="207">Shortener</tspan>
        </text>
    </g>
</svg>