<svg xmlns="http://www.w3.org/2000/svg" xmlns:xlink="http://www.w3.org/1999/xlink" width="640" height="360" viewBox="0 0 640 360">
  <defs>
    <linearGradient id="picture-b" x1="50%" x2="50%" y1="55.531%" y2="-63.919%">
      <stop offset="0%" stop-color="#FFF"/>
      <stop offset="100%" stop-color="#E9ECEF"/>
    </linearGradient>
    <rect id="picture-a" width="640" height="360"/>
  </defs>
  <g fill="none" fill-rule="evenodd">
    <rect width="640" height="360"/>
    <use fill="url(#picture-b)" xlink:href="#picture-a"/>
    <g transform="translate(192 53)">
      <path fill="#26B99A" fill-rule="nonzero" d="M164 96C162.572311 96 161.343541 95.5296059 160 95 158.530812 92.716841 158.530812 89.678479 160 88L247 1C248.682158-.469194135 251.715682-.469194135 254 1 255.469188 3.27955901 255.469188 6.31792103 254 8L167 95C166.258619 95.5296059 165.029849 96 164 96M5 255C3.57231069 255 2.34354141 254.529606 1 254-.46918827 251.716841-.46918827 248.678479 1 247L88 160C89.6821579 158.530806 92.7156821 158.530806 95 160 96.4691883 162.279559 96.4691883 165.317921 95 167L8 254C7.25861853 254.529606 6.02984925 255 5 255M250 255C248.970151 255 247.741381 254.529612 247 254L160 167C158.530812 165.319042 158.530812 162.280718 160 160 162.284318 158.532012 165.317842 158.532012 167 160L254 247C255.469188 248.678558 255.469188 251.716882 254 254 252.656459 254.529612 251.427689 255 250 255M91 96C89.9698492 96 88.7410185 95.5343593 88 95L1 8C-.46921173 6.31855287-.46921173 3.27988699 1 1 3.28448211-.469241059 6.31815795-.469241059 8 1L95 88C96.4692117 89.6826472 96.4692117 92.7213131 95 95 93.6563414 95.5343593 92.4275107 96 91 96"/>
      <path fill="#26B99A" fill-rule="nonzero" d="M91,97 L34,97 C31.1392143,97 29,94.765 29,92 C29,89.24 31.1392143,87 34,87 L91,87 C93.8607857,87 96,89.24 96,92 C96,94.765 93.8607857,97 91,97"/>
      <path fill="#26B99A" fill-rule="nonzero" d="M92 96C89.235 96 87 93.8607857 87 91L87 34C87 31.144 89.235 29 92 29 94.765 29 97 31.144 97 34L97 91C97 93.8607857 94.765 96 92 96M221 169L164 169C161.139214 169 159 166.761119 159 164 159 161.238881 161.139214 159 164 159L221 159C223.860786 159 226 161.238881 226 164 226 166.761119 223.860786 169 221 169"/>
      <path fill="#26B99A" fill-rule="nonzero" d="M164 226C161.235 226 159 223.856153 159 221L159 164C159 161.143847 161.235 159 164 159 166.765 159 169 161.143847 169 164L169 221C169 223.856153 166.765 226 164 226M92 226C89.235 226 87 223.856 87 221L87 164C87 161.144 89.235 159 92 159 94.765 159 97 161.144 97 164L97 221C97 223.856 94.765 226 92 226"/>
      <path fill="#26B99A" fill-rule="nonzero" d="M91 169L34 169C31.1392143 169 29 166.76 29 164 29 161.24 31.1392143 159 34 159L91 159C93.8607857 159 96 161.24 96 164 96 166.76 93.8607857 169 91 169M164 96C161.235 96 159 93.856 159 91L159 34C159 31.144 161.235 29 164 29 166.765 29 169 31.144 169 34L169 91C169 93.856 166.765 96 164 96"/>
      <path fill="#26B99A" fill-rule="nonzero" d="M221,97 L164,97 C161.139214,97 159,94.76 159,92 C159,89.24 161.139214,87 164,87 L221,87 C223.860786,87 226,89.24 226,92 C226,94.76 223.860786,97 221,97"/>
      <polygon fill="#B1E97C" fill-rule="nonzero" points="106 106 149 106 149 149 106 149"/>
      <path fill="#B1E97C" fill-rule="nonzero" d="M101,101 L154,101 L154,154 L101,154 L101,101 Z M111,145 L145,145 L145,111 L111,111 L111,145 Z"/>
    </g>
  </g>
</svg>
