<svg height="360" viewBox="0 0 640 360" width="640" xmlns="http://www.w3.org/2000/svg"><g fill="none" fill-rule="evenodd"><path d="m0 0h640v360h-640z" fill="#fff"/><g transform="matrix(0 1 -1 0 240 138)"><circle cx="40" cy="40" fill="#f4e1f8" r="40"/><path d="m24.8716687 77.040207 39.6375518-68.65425361c9.425379 7.31775061 15.4907795 18.75757351 15.4907795 31.61404661 0 22.09139-17.90861 40-40 40-5.3535305 0-10.4614208-1.0517109-15.1283313-2.959793z" fill="#e2b1ed"/><path d="m15.4907795 8.38595339 39.6375518 68.65425361c-4.6669105 1.9080821-9.7748008 2.959793-15.1283313 2.959793-22.09139 0-40-17.90861-40-40 0-12.8564731 6.06540051-24.296296 15.4907795-31.61404661z" fill="#cd52ea"/></g><g fill="#cd52ea"><text font-family="NittiGrotesk-Light, Nitti Grotesk" font-size="28" font-weight="300" letter-spacing="3.333333"><tspan x="269" y="165">URL</tspan></text><text font-family="NittiGrotesk-Bold, Nitti Grotesk" font-size="52" font-weight="bold"><tspan x="269" y="207">Shortener</tspan></text></g></g></svg>