<svg xmlns="http://www.w3.org/2000/svg" xmlns:xlink="http://www.w3.org/1999/xlink" width="640" height="360" viewBox="0 0 640 360">
  <defs>
    <linearGradient id="picture-a" x1="50%" x2="50%" y1="0%" y2="100%">
      <stop offset="0%" stop-color="#FAFAFA"/>
      <stop offset="100%" stop-color="#FFF"/>
    </linearGradient>
    <linearGradient id="picture-d" x1="50%" x2="50%" y1="0%" y2="100%">
      <stop offset="0%" stop-color="#F796F8"/>
      <stop offset="100%" stop-color="#8326B9"/>
    </linearGradient>
    <circle id="picture-c" cx="320" cy="180" r="110"/>
    <filter id="picture-b" width="103.6%" height="103.6%" x="-1.8%" y="-.9%" filterUnits="objectBoundingBox">
      <feOffset dy="2" in="SourceAlpha" result="shadowOffsetOuter1"/>
      <feGaussianBlur in="shadowOffsetOuter1" result="shadowBlurOuter1" stdDeviation="1"/>
      <feColorMatrix in="shadowBlurOuter1" values="0 0 0 0 0   0 0 0 0 0   0 0 0 0 0  0 0 0 0.16 0"/>
    </filter>
    <filter id="picture-e" width="110.5%" height="110.5%" x="-5.3%" y="-5.3%" filterUnits="objectBoundingBox">
      <feGaussianBlur in="SourceGraphic" stdDeviation="1"/>
    </filter>
    <linearGradient id="picture-f" x1="50%" x2="50%" y1="0%" y2="100%">
      <stop offset="0%" stop-color="#FFF"/>
      <stop offset="100%" stop-color="#FFF" stop-opacity="0"/>
    </linearGradient>
    <filter id="picture-g" width="110.9%" height="110.9%" x="-5.5%" y="-5.5%" filterUnits="objectBoundingBox">
      <feGaussianBlur in="SourceGraphic" stdDeviation="2"/>
    </filter>
    <filter id="picture-h" width="106.7%" height="106.7%" x="-3.3%" y="-3.3%" filterUnits="objectBoundingBox">
      <feGaussianBlur in="SourceGraphic" stdDeviation="2"/>
    </filter>
    <filter id="picture-i" width="153.6%" height="195.8%" x="-26.8%" y="-47.9%" filterUnits="objectBoundingBox">
      <feGaussianBlur in="SourceGraphic" stdDeviation="6"/>
    </filter>
    <filter id="picture-j" width="153.6%" height="195.8%" x="-26.8%" y="-47.9%" filterUnits="objectBoundingBox">
      <feGaussianBlur in="SourceGraphic" stdDeviation="6"/>
    </filter>
    <filter id="picture-k" width="117.9%" height="131.9%" x="-8.9%" y="-16%" filterUnits="objectBoundingBox">
      <feGaussianBlur in="SourceGraphic" stdDeviation="2"/>
    </filter>
    <filter id="picture-l" width="117.9%" height="131.9%" x="-8.9%" y="-16%" filterUnits="objectBoundingBox">
      <feGaussianBlur in="SourceGraphic" stdDeviation="2"/>
    </filter>
    <linearGradient id="picture-m" x1="28.265%" x2="76.611%" y1="-15.23%" y2="100%">
      <stop offset="0%" stop-color="#FFF"/>
      <stop offset="100%" stop-color="#E3E3E3"/>
    </linearGradient>
  </defs>
  <g fill="none" fill-rule="evenodd">
    <rect width="640" height="360" fill="url(#picture-a)"/>
    <use fill="#000" filter="url(#picture-b)" xlink:href="#picture-c"/>
    <use fill="url(#picture-d)" xlink:href="#picture-c"/>
    <circle cx="320.5" cy="180.5" r="26.5" stroke="#FFF" stroke-width="4" filter="url(#picture-e)" opacity=".06" style="mix-blend-mode:overlay"/>
    <circle cx="320" cy="180" r="53" stroke="url(#picture-f)" stroke-width="4" filter="url(#picture-g)" opacity=".4" style="mix-blend-mode:overlay"/>
    <circle cx="320" cy="180" r="88" stroke="url(#picture-f)" stroke-width="4" filter="url(#picture-h)" opacity=".4" style="mix-blend-mode:overlay"/>
    <g fill="#000" fill-rule="nonzero" opacity=".6" transform="rotate(45 -4.125 424.061)">
      <path d="M75.8956478,39.2836824 L75.8956478,34.728946 L88.2935517,34.728946 C96.2288404,34.728946 102.661663,28.356368 102.661663,20.4953946 C102.661663,12.6344212 96.2288404,6.26184322 88.2935517,6.26184322 L59.1197204,6.26184322 C51.1844316,6.26184322 44.7516091,12.6344212 44.7516091,20.4953946 C44.7516091,24.4226959 46.3572091,27.9785012 48.9536118,30.5537709 L43.0977203,30.5537709 C41.2334708,27.6456525 40.1538135,24.1954265 40.1538135,20.4953946 C40.1538135,10.1189098 48.6451392,1.70710678 59.1197204,1.70710678 L88.2935517,1.70710678 C98.7681328,1.70710678 107.259459,10.1189098 107.259459,20.4953946 C107.259459,30.8718794 98.7681328,39.2836824 88.2935517,39.2836824 L75.8956478,39.2836824 Z" filter="url(#picture-i)" opacity=".5"/>
      <path d="M37.8237344,48.2906829 L37.8237344,43.7359465 L50.2216383,43.7359465 C58.156927,43.7359465 64.5897495,37.3633684 64.5897495,29.5023951 C64.5897495,21.6414217 58.156927,15.2688437 50.2216383,15.2688437 L21.047807,15.2688437 C13.1125182,15.2688437 6.6796957,21.6414217 6.6796957,29.5023951 C6.6796957,33.4296964 8.2852957,36.9855017 10.8816983,39.5607714 L5.02580691,39.5607714 C3.16155741,36.652653 2.0819001,33.202427 2.0819001,29.5023951 C2.0819001,19.1259102 10.5732258,10.7141073 21.047807,10.7141073 L50.2216383,10.7141073 C60.6962194,10.7141073 69.1875451,19.1259102 69.1875451,29.5023951 C69.1875451,39.8788799 60.6962194,48.2906829 50.2216383,48.2906829 L37.8237344,48.2906829 Z" filter="url(#picture-j)" opacity=".5" transform="rotate(180 35.635 29.502)"/>
      <path d="M74.4814343,37.8694688 L74.4814343,33.3147324 L86.8793381,33.3147324 C94.8146269,33.3147324 101.247449,26.9421544 101.247449,19.081181 C101.247449,11.2202077 94.8146269,4.84762966 86.8793381,4.84762966 L57.7055068,4.84762966 C49.7702181,4.84762966 43.3373956,11.2202077 43.3373956,19.081181 C43.3373956,23.0084823 44.9429956,26.5642876 47.5393982,29.1395573 L41.6835068,29.1395573 C39.8192573,26.231439 38.7396,22.7812129 38.7396,19.081181 C38.7396,8.7046962 47.2309257,0.292893219 57.7055068,0.292893219 L86.8793381,0.292893219 C97.3539193,0.292893219 105.845245,8.7046962 105.845245,19.081181 C105.845245,29.4576659 97.3539193,37.8694688 86.8793381,37.8694688 L74.4814343,37.8694688 Z" filter="url(#picture-k)" opacity=".3"/>
      <path d="M36.4095209,46.8764693 L36.4095209,42.3217329 L48.8074247,42.3217329 C56.7427135,42.3217329 63.175536,35.9491549 63.175536,28.0881815 C63.175536,20.2272082 56.7427135,13.8546301 48.8074247,13.8546301 L19.6335934,13.8546301 C11.6983047,13.8546301 5.26548214,20.2272082 5.26548214,28.0881815 C5.26548214,32.0154828 6.87108214,35.5712881 9.46748479,38.1465578 L3.61159335,38.1465578 C1.74734385,35.2384395 0.66768654,31.7882134 0.66768654,28.0881815 C0.66768654,17.7116967 9.15901227,9.29989371 19.6335934,9.29989371 L48.8074247,9.29989371 C59.2820059,9.29989371 67.7733316,17.7116967 67.7733316,28.0881815 C67.7733316,38.4646664 59.2820059,46.8764693 48.8074247,46.8764693 L36.4095209,46.8764693 Z" filter="url(#picture-l)" opacity=".3" transform="rotate(180 34.22 28.088)"/>
    </g>
    <path fill="url(#picture-m)" fill-rule="nonzero" stroke="#FFF" d="M341.726999,190.377128 L341.726999,185.822392 L354.124903,185.822392 C362.060192,185.822392 368.493014,179.449814 368.493014,171.588841 C368.493014,163.727867 362.060192,157.355289 354.124903,157.355289 L324.951071,157.355289 C317.015783,157.355289 310.58296,163.727867 310.58296,171.588841 C310.58296,175.516142 312.18856,179.071947 314.784963,181.647217 L308.929071,181.647217 C307.064822,178.739099 305.985165,175.288873 305.985165,171.588841 C305.985165,161.212356 314.47649,152.800553 324.951071,152.800553 L354.124903,152.800553 C364.599484,152.800553 373.09081,161.212356 373.09081,171.588841 C373.09081,181.965325 364.599484,190.377128 354.124903,190.377128 L341.726999,190.377128 Z M299.277062,161.807553 L299.277062,166.36229 L286.879158,166.36229 C278.943869,166.36229 272.511047,172.734868 272.511047,180.595841 C272.511047,188.456814 278.943869,194.829392 286.879158,194.829392 L316.052989,194.829392 C323.988278,194.829392 330.421101,188.456814 330.421101,180.595841 C330.421101,176.66854 328.815501,173.112734 326.219098,170.537465 L332.074989,170.537465 C333.939239,173.445583 335.018896,176.895809 335.018896,180.595841 C335.018896,190.972326 326.52757,199.384129 316.052989,199.384129 L286.879158,199.384129 C276.404577,199.384129 267.913251,190.972326 267.913251,180.595841 C267.913251,170.219356 276.404577,161.807553 286.879158,161.807553 L299.277062,161.807553 Z" transform="rotate(45 320.502 176.092)"/>
  </g>
</svg>
