<svg xmlns="http://www.w3.org/2000/svg" xmlns:xlink="http://www.w3.org/1999/xlink" width="640" height="360" viewBox="0 0 640 360">
  <defs>
    <linearGradient id="picture-b" x1="50%" x2="50%" y1="55.531%" y2="-63.919%">
      <stop offset="0%" stop-color="#FFF"/>
      <stop offset="100%" stop-color="#E9ECEF"/>
    </linearGradient>
    <rect id="picture-a" width="640" height="360"/>
  </defs>
  <g fill="none" fill-rule="evenodd">
    <rect width="640" height="360"/>
    <g>
      <use fill="url(#picture-b)" xlink:href="#picture-a"/>
    </g>
    <path fill="#26B99A" fill-rule="nonzero" d="M356 149C354.572311 149 353.343541 148.529606 352 148 350.530812 145.716841 350.530812 142.678479 352 141L439 54C440.682158 52.5308059 443.715682 52.5308059 446 54 447.469188 56.279559 447.469188 59.317921 446 61L359 148C358.258619 148.529606 357.029849 149 356 149M197 308C195.572311 308 194.343541 307.529606 193 307 191.530812 304.716841 191.530812 301.678479 193 300L280 213C281.682158 211.530806 284.715682 211.530806 287 213 288.469188 215.279559 288.469188 218.317921 287 220L200 307C199.258619 307.529606 198.029849 308 197 308M442 308C440.970151 308 439.741381 307.529612 439 307L352 220C350.530812 218.319042 350.530812 215.280718 352 213 354.284318 211.532012 357.317842 211.532012 359 213L446 300C447.469188 301.678558 447.469188 304.716882 446 307 444.656459 307.529612 443.427689 308 442 308M283 149C281.969849 149 280.741019 148.534359 280 148L193 61C191.530788 59.3185529 191.530788 56.279887 193 54 195.284482 52.5307589 198.318158 52.5307589 200 54L287 141C288.469212 142.682647 288.469212 145.721313 287 148 285.656341 148.534359 284.427511 149 283 149"/>
    <path fill="#26B99A" fill-rule="nonzero" d="M283,150 L226,150 C223.139214,150 221,147.765 221,145 C221,142.24 223.139214,140 226,140 L283,140 C285.860786,140 288,142.24 288,145 C288,147.765 285.860786,150 283,150"/>
    <path fill="#26B99A" fill-rule="nonzero" d="M284 149C281.235 149 279 146.860786 279 144L279 87C279 84.144 281.235 82 284 82 286.765 82 289 84.144 289 87L289 144C289 146.860786 286.765 149 284 149M413 222L356 222C353.139214 222 351 219.761119 351 217 351 214.238881 353.139214 212 356 212L413 212C415.860786 212 418 214.238881 418 217 418 219.761119 415.860786 222 413 222"/>
    <path fill="#26B99A" fill-rule="nonzero" d="M356 279C353.235 279 351 276.856153 351 274L351 217C351 214.143847 353.235 212 356 212 358.765 212 361 214.143847 361 217L361 274C361 276.856153 358.765 279 356 279M284 279C281.235 279 279 276.856 279 274L279 217C279 214.144 281.235 212 284 212 286.765 212 289 214.144 289 217L289 274C289 276.856 286.765 279 284 279"/>
    <path fill="#26B99A" fill-rule="nonzero" d="M283 222L226 222C223.139214 222 221 219.76 221 217 221 214.24 223.139214 212 226 212L283 212C285.860786 212 288 214.24 288 217 288 219.76 285.860786 222 283 222M356 149C353.235 149 351 146.856 351 144L351 87C351 84.144 353.235 82 356 82 358.765 82 361 84.144 361 87L361 144C361 146.856 358.765 149 356 149"/>
    <path fill="#26B99A" fill-rule="nonzero" d="M413,150 L356,150 C353.139214,150 351,147.76 351,145 C351,142.24 353.139214,140 356,140 L413,140 C415.860786,140 418,142.24 418,145 C418,147.76 415.860786,150 413,150"/>
    <polygon fill="#B1E97C" fill-rule="nonzero" points="298 159 341 159 341 202 298 202"/>
    <path fill="#B1E97C" fill-rule="nonzero" d="M293,154 L346,154 L346,207 L293,207 L293,154 Z M303,198 L337,198 L337,164 L303,164 L303,198 Z"/>
  </g>
</svg>
